<svg xmlns="http://www.w3.org/2000/svg" viewBox="0 0 48 48"><g data-name="Gift box"><rect width="42" height="8" x="3" y="9" fill="#fc6"/><path fill="#ffde76" d="M45,9v8H15A8,8,0,0,1,7,9Z"/><rect width="36" height="30" x="6" y="17" fill="#fc6"/><path fill="#ffde76" d="M42,19V45c-10.56,0-16.29.83-23-3.56A22,22,0,0,1,9,23a4,4,0,0,1,4-4Z"/><path fill="#db5669" d="M39,1V3a6,6,0,0,1-6,6H27V7a6,6,0,0,1,6-6Z"/><path fill="#f26674" d="M39,1V3a6,6,0,0,1-6,6H29V7a6,6,0,0,1,6-6Z"/><path fill="#db5669" d="M21,7V9H15A6,6,0,0,1,9,3V1h6A6,6,0,0,1,21,7Z"/><path fill="#f26674" d="M21,7V9H17a6,6,0,0,1-6-6V1h4A6,6,0,0,1,21,7Z"/><path fill="#db5669" d="M27,6V9H21V6a3,3,0,0,1,6,0Z"/><path fill="#f26674" d="M27,6V9H23V6a3,3,0,0,1,2-2.82A3,3,0,0,1,27,6Z"/><rect width="14" height="8" x="17" y="9" fill="#f26674"/><rect width="10" height="30" x="19" y="17" fill="#db5669"/><path fill="#f26674" d="M29,19V44.91a21.8,21.8,0,0,1-10-3.47V19Z"/><path d="M45,8H37.89C40.26,5.68,40,3.22,40,1a1,1,0,0,0-1-1H33a7,7,0,0,0-6,3.4,3.94,3.94,0,0,0-6,0A7,7,0,0,0,15,0H9A1,1,0,0,0,8,1c0,2.31-.25,4.69,2.11,7H3A1,1,0,0,0,2,9v8a1,1,0,0,0,1,1H5V47a1,1,0,0,0,1,1H42a1,1,0,0,0,1-1V18h2a1,1,0,0,0,1-1V9A1,1,0,0,0,45,8ZM33,2h5V3a5,5,0,0,1-5,5H28V7A5,5,0,0,1,33,2ZM30,16H18V10H30ZM22,6a2,2,0,0,1,4,0V8H22ZM10,3V2h5a5,5,0,0,1,5,5V8H15A5,5,0,0,1,10,3ZM4,10H16v6H4Zm3,8H18V46H7ZM20,46V18h8V46Zm21,0H30V18H41Zm3-30H32V10H44Z"/></g></svg>