<svg xmlns="http://www.w3.org/2000/svg" width="32" height="32" viewBox="0 0 32 32"><g transform="translate(0 -1020.362)"><path fill="#00e4ff" style="isolation:auto;mix-blend-mode:normal" d="m 19.09617,1026.8622 7.4038,0 0,15 -23.99999,0 0,-15 7.46875,0" color="#000" overflow="visible"/><path fill="none" style="isolation:auto;mix-blend-mode:normal" d="m 19.09617,1026.8622 7.4038,0 0,15 -23.99999,0 0,-15 7.46875,0" color="#000" overflow="visible"/><path style="line-height:normal;text-indent:0;text-align:start;text-decoration-line:none;text-decoration-style:solid;text-decoration-color:#000;text-transform:none;block-progression:tb;isolation:auto;mix-blend-mode:normal" d="m 0.5,1041.3613 a 0.50005,0.50005 0 0 0 -0.5,0.5 c 0,1.4086 1.2596669,2.5 2.7402344,2.5 l 23.5195316,0 c 1.480567,0 2.740234,-1.0914 2.740234,-2.5 a 0.50005,0.50005 0 0 0 -0.5,-0.5 l -28,0 z m 0.734375,1 26.53125,0 c -0.247005,0.5493 -0.742231,1 -1.505859,1 l -23.5195316,0 c -0.7636281,0 -1.2588539,-0.4507 -1.5058594,-1 z" color="#000" font-family="sans-serif" font-weight="400" overflow="visible" white-space="normal"/><path fill="#fff" d="m 2.49998,1026.8622 0,15 1.5,0 0,-15 -1.5,0 z" color="#000" overflow="visible" style="isolation:auto;mix-blend-mode:normal"/><path fill="#00a5ff" d="m 26.49998,1041.8622 0,-15 -24,0 0,2 21,0 c 0.554,0 1,0.446 1,1 l 0,12 2,0 z" color="#000" overflow="visible" style="isolation:auto;mix-blend-mode:normal"/><path fill="#fff" style="isolation:auto;mix-blend-mode:normal" d="m 2.49998,1026.8622 0,15 24,0 0,-2 -21,0 c -0.5540096,0 -1,-0.446 -1,-1 l 0,-12 -2,0 z" color="#000" overflow="visible"/><path style="line-height:normal;text-indent:0;text-align:start;text-decoration-line:none;text-decoration-style:solid;text-decoration-color:#000;text-transform:none;block-progression:tb;isolation:auto;mix-blend-mode:normal" d="m 2.5,1026.3613 a 0.50005,0.50005 0 0 0 -0.5,0.5 l 0,3.75 0,1.75 a 0.50005,0.50005 0 1 0 1,0 l 0,-1.75 0,-3.25 6.96875,0 9.126953,0 6.904297,0 0,14 -23,0 0,-3.25 0,-0.75 a 0.50005,0.50005 0 1 0 -1,0 l 0,0.75 0,3.75 a 0.50005,0.50005 0 0 0 0.5,0.5 l 24,0 a 0.50005,0.50005 0 0 0 0.5,-0.5 l 0,-15 a 0.50005,0.50005 0 0 0 -0.5,-0.5 l -7.404297,0 -9.126953,0 -7.46875,0 z m -0.00781,7.4942 A 0.50005,0.50005 0 0 0 2,1034.3613 l 0,1 a 0.50005,0.50005 0 1 0 1,0 l 0,-1 a 0.50005,0.50005 0 0 0 -0.5078125,-0.5058 z" color="#000" font-family="sans-serif" font-weight="400" overflow="visible" white-space="normal"/><path fill="#f4606e" style="isolation:auto;mix-blend-mode:normal" d="m 28.49998,1041.8622 c 0,1.108 -0.99904,2 -2.24001,2 l -23.51998,0 c -1.24097,0 -2.24001,-0.892 -2.24001,-2 z" color="#000" overflow="visible"/><path fill="#fff" d="m 0.49998,1041.8622 c 0,1.108 0.9992644,2 2.2402344,2 l 1.5,0 c -1.24097,0 -2.2402344,-0.892 -2.2402344,-2 l -1.5,0 z" color="#000" overflow="visible" style="isolation:auto;mix-blend-mode:normal"/><path fill="#f89963" style="isolation:auto;mix-blend-mode:normal" d="m 28.49998,1041.8622 c 0,1.108 -0.999264,2 -2.240234,2 l -1.5,0 c 1.24097,0 2.240234,-0.892 2.240234,-2 l 1.5,0 z" color="#000" overflow="visible"/><path style="line-height:normal;text-indent:0;text-align:start;text-decoration-line:none;text-decoration-style:solid;text-decoration-color:#000;text-transform:none;block-progression:tb;isolation:auto;mix-blend-mode:normal" d="M.5 1041.3613a.50005.50005 0 0 0-.5.5c0 1.4086 1.2596669 2.5 2.7402344 2.5l23.5195316 0c1.480567 0 2.740234-1.0914 2.740234-2.5a.50005.50005 0 0 0-.5-.5l-28 0zm.734375 1l26.53125 0c-.247005.5493-.742231 1-1.505859 1l-23.5195316 0c-.7636281 0-1.2588539-.4507-1.5058594-1zM18.177899 1032.2311c-.808205-1.3998-2.384762-2.1758-3.987344-1.9648-1.602581.2109-2.923374 1.3693-3.34173 2.9306a.50063561.50063561 0 1 0 .96751.2579c.314419-1.1735 1.300183-2.0385 2.504612-2.1971 1.204429-.1585 2.383517.4214 2.990927 1.4734a.50005.50005 0 1 0 .866025-.5z" color="#000" font-family="sans-serif" font-weight="400" overflow="visible" white-space="normal"/><path fill-rule="evenodd" style="line-height:normal;text-indent:0;text-align:start;text-decoration-line:none;text-decoration-style:solid;text-decoration-color:#000;text-transform:none;block-progression:tb;isolation:auto;mix-blend-mode:normal" d="m 10.091797,1031.7617 a 0.50005,0.50005 0 0 0 -0.4101564,0.7559 l 1.0000004,1.7304 a 0.50005,0.50005 0 0 0 0.683593,0.1836 l 1.732422,-1 a 0.50005,0.50005 0 1 0 -0.5,-0.8652 l -1.300781,0.75 -0.75,-1.2988 a 0.50005,0.50005 0 0 0 -0.455078,-0.2559 z" color="#000" font-family="sans-serif" font-weight="400" overflow="visible" white-space="normal"/><path style="line-height:normal;text-indent:0;text-align:start;text-decoration-line:none;text-decoration-style:solid;text-decoration-color:#000;text-transform:none;block-progression:tb;isolation:auto;mix-blend-mode:normal" d="m 10.823523,1036.493 c 0.808205,1.3998 2.383069,2.1768 3.985656,1.9658 1.60259,-0.2109 2.923379,-1.3693 3.341738,-2.9307 a 0.50005,0.50005 0 1 0 -0.965821,-0.2587 c -0.314419,1.1734 -1.301872,2.0394 -2.506301,2.198 -1.204437,0.1585 -2.381836,-0.4223 -2.989246,-1.4744 a 0.50005,0.50005 0 1 0 -0.866026,0.5 z" color="#000" font-family="sans-serif" font-weight="400" overflow="visible" white-space="normal"/><path fill-rule="evenodd" style="line-height:normal;text-indent:0;text-align:start;text-decoration-line:none;text-decoration-style:solid;text-decoration-color:#000;text-transform:none;block-progression:tb;isolation:auto;mix-blend-mode:normal" d="m 17.859375,1034.2266 a 0.50005,0.50005 0 0 0 -0.224609,0.066 l -1.732422,1 a 0.50005,0.50005 0 1 0 0.5,0.8652 l 1.300781,-0.75 0.75,1.2988 a 0.50005,0.50005 0 1 0 0.865234,-0.5 l -1,-1.7324 a 0.50005,0.50005 0 0 0 -0.458984,-0.248 z" color="#000" font-family="sans-serif" font-weight="400" overflow="visible" white-space="normal"/><path fill="#00e4ff" d="m 23.5,1034.8622 8,0 0,9 -8,0 z" color="#000" overflow="visible" style="isolation:auto;mix-blend-mode:normal"/><path fill="#632de3" style="isolation:auto;mix-blend-mode:normal" d="M23.5 1032.7622l8 0 0 2-8 0zM23.500031 1043.8622l8 0 0 2-8 0z" color="#000" overflow="visible"/><path fill="#5023b4" style="isolation:auto;mix-blend-mode:normal" d="m 23.5,1032.7622 1.500031,0 0,2 -1.500031,0 z" color="#000" overflow="visible"/><path fill="#fff" d="m 23.50003,1034.3622 0,10 1.5,0 0,-10 -1.5,0 z" color="#000" overflow="visible" style="isolation:auto;mix-blend-mode:normal"/><path fill="#5023b4" style="isolation:auto;mix-blend-mode:normal" d="m 23.500031,1043.8622 1.5,0 0,2 -1.5,0 z" color="#000" overflow="visible"/><path fill="#00a5ff" d="m 23.50003,1034.8622 0,1.5 5.5,0 c 0.55401,0 1,0.446 1,1 l 0,6.5 1.5,0 0,-9 z" color="#000" overflow="visible" style="isolation:auto;mix-blend-mode:normal"/><path style="line-height:normal;text-indent:0;text-align:start;text-decoration-line:none;text-decoration-style:solid;text-decoration-color:#000;text-transform:none;block-progression:tb;isolation:auto;mix-blend-mode:normal" d="m 23.5,1032.3613 a 0.50005,0.50005 0 0 0 -0.5,0.5 l 0,3.8262 a 0.50005,0.50005 0 1 0 1,0 l 0,-3.3262 7,0 0,12 -7,0 0,-6.373 a 0.50005,0.50005 0 1 0 -1,0 l 0,6.873 a 0.50005,0.50005 0 0 0 0.5,0.5 l 8,0 a 0.50005,0.50005 0 0 0 0.5,-0.5 l 0,-13 a 0.50005,0.50005 0 0 0 -0.5,-0.5 l -8,0 z" color="#000" font-family="sans-serif" font-weight="400" overflow="visible" white-space="normal"/><path fill-rule="evenodd" style="line-height:normal;text-indent:0;text-align:start;text-decoration-line:none;text-decoration-style:solid;text-decoration-color:#000;text-transform:none;block-progression:tb;isolation:auto;mix-blend-mode:normal" d="M24 1043.3613l0 1 7 0 0-1-7 0zM24 1034.3613l0 1 7 0 0-1-7 0z" color="#000" font-family="sans-serif" font-weight="400" overflow="visible" white-space="normal"/></g></svg>