<svg xmlns="http://www.w3.org/2000/svg" width="32" height="32" viewBox="0 0 32 32"><g transform="translate(483.5 -1203.362)"><path fill="#f4606e" d="m -480,189.5 0,19 23,0 0,-19 -23,0 z m 14.45703,4.05078 a 6.2675241,6.369043 44.945369 0 1 4.36133,1.81445 6.2675241,6.369043 44.945369 0 1 -0.0723,8.93555 6.2675241,6.369043 44.945369 0 1 -8.93554,0.0723 6.2675241,6.369043 44.945369 0 1 0.0723,-8.93555 6.2675241,6.369043 44.945369 0 1 4.57422,-1.88672 z" transform="translate(0 1020.362)"/><path fill="#00a5ff" d="m -479.99982,1205.8622 23,0 0,4 -23,0 z"/><path fill="#0079fd" d="m -479.99982,1205.8622 0,1.5 21.5,0 0,2.5 1.5,0 0,-4 z"/><path fill="#fe2b70" d="m -458.5,189.5 0,19 1.5,0 0,-19 z" transform="translate(0 1020.362)"/><path fill="none" stroke="#000" d="m -479.99981,1209.8622 22.99998,0"/><circle style="isolation:auto;mix-blend-mode:normal" cx="-478" cy="1207.862" r=".5" fill="#fe2b70" color="#000" overflow="visible"/><circle cx="-476" cy="1207.862" r=".5" fill="#f9d259" color="#000" overflow="visible" style="isolation:auto;mix-blend-mode:normal"/><circle style="isolation:auto;mix-blend-mode:normal" cx="-474" cy="1207.862" r=".5" fill="#f9d259" color="#000" overflow="visible"/><path fill="none" stroke="#000" stroke-dashoffset=".4" stroke-linecap="round" stroke-linejoin="round" stroke-miterlimit="0" style="isolation:auto;mix-blend-mode:normal" d="m -456.9998,1215.7694 0,13.0928 -23.00002,0 0,-23 23,0 2e-5,5.5117 m 0,1.8877 0,0.3101 0,0.354" color="#000" overflow="visible"/><rect style="isolation:auto;mix-blend-mode:normal" width="2" height="9" x="-467.5" y="1218.362" fill="#f8e71b" color="#000" overflow="visible"/><rect width="2" height="7" x="-463.5" y="1220.362" fill="#f8e71b" color="#000" overflow="visible" style="isolation:auto;mix-blend-mode:normal"/><rect width="2" height="2" x="-471.5" y="1225.362" fill="#f8e71b" color="#000" overflow="visible" style="isolation:auto;mix-blend-mode:normal"/><rect style="isolation:auto;mix-blend-mode:normal" width="2" height="5" x="-475.5" y="1222.362" fill="#f8e71b" color="#000" overflow="visible"/><path fill="#01d1ff" fill-rule="evenodd" style="line-height:normal;text-indent:0;text-align:start;text-decoration-line:none;text-decoration-style:solid;text-decoration-color:#000;text-transform:none;block-progression:tb;isolation:auto;mix-blend-mode:normal" d="m -459.71906,1226.1131 a 1.3593738,1.3594099 89.982122 0 0 0.0275,1.9197 l 5.33265,5.3325 a 1.3593738,1.3594099 89.982122 1 0 1.92231,-1.9223 l -5.33266,-5.3325 a 1.3593738,1.3594099 89.982122 0 0 -1.94978,0 z" color="#000" font-family="sans-serif" font-weight="400" overflow="visible" white-space="normal"/><path fill-rule="evenodd" d="m -461.59709,1224.2149 c -0.17647,0.1765 -0.16967,0.4652 0.009,0.6396 l 2.34516,2.3451 c 0.42688,0.4397 1.08019,-0.2136 0.64077,-0.6407 l -2.34516,-2.3452 c -0.17855,-0.1823 -0.472,-0.182 -0.64962,0 z" color="#000" font-family="sans-serif" font-weight="400" overflow="visible" white-space="normal" style="line-height:normal;text-indent:0;text-align:start;text-decoration-line:none;text-decoration-style:solid;text-decoration-color:#000;text-transform:none;block-progression:tb;isolation:auto;mix-blend-mode:normal"/><ellipse cx="-1192.115" cy="533.526" fill="none" stroke="#01d1ff" stroke-linecap="round" stroke-linejoin="round" stroke-width="1.5" color="#000" style="isolation:auto;mix-blend-mode:normal" overflow="visible" rx="5.61" ry="5.52" transform="rotate(-45.001) skewX(-.002)"/><path fill="#01d1ff" fill-rule="evenodd" d="m -459.71906,1226.1131 a 1.3593738,1.3594099 89.982122 0 0 0.0275,1.9197 l 5.33265,5.3325 a 1.3593738,1.3594099 89.982122 1 0 1.92231,-1.9223 l -5.33266,-5.3325 a 1.3593738,1.3594099 89.982122 0 0 -1.94978,0 z" color="#000" font-family="sans-serif" font-weight="400" overflow="visible" white-space="normal" style="line-height:normal;text-indent:0;text-align:start;text-decoration-line:none;text-decoration-style:solid;text-decoration-color:#000;text-transform:none;block-progression:tb;isolation:auto;mix-blend-mode:normal"/><path fill="#00a5ff" fill-rule="evenodd" d="m -459.71844,1226.1136 a 1.3593738,1.3594099 89.982122 0 0 -0.25033,0.3604 1.3593738,1.3594099 89.982122 0 1 1.55943,0.2778 l 5.33139,5.3312 a 1.3593738,1.3594099 89.982122 0 1 0.28034,1.5594 1.3593738,1.3594099 89.982122 0 0 0.36043,-2.2001 l -5.33139,-5.3313 a 1.3593738,1.3594099 89.982122 0 0 -1.94986,0 z" color="#000" font-family="sans-serif" font-weight="400" overflow="visible" white-space="normal" style="line-height:normal;text-indent:0;text-align:start;text-decoration-line:none;text-decoration-style:solid;text-decoration-color:#000;text-transform:none;block-progression:tb;isolation:auto;mix-blend-mode:normal"/><path fill="none" stroke="#000" stroke-linecap="round" stroke-linejoin="round" d="m -459.71906,1226.1131 a 1.3593738,1.3594099 89.982122 0 0 0.0275,1.9197 l 5.33265,5.3325 a 1.3593738,1.3594099 89.982122 1 0 1.92231,-1.9223 l -5.33266,-5.3325 a 1.3593738,1.3594099 89.982122 0 0 -1.94978,0 z" color="#000" font-family="sans-serif" font-weight="400" overflow="visible" white-space="normal" style="line-height:normal;text-indent:0;text-align:start;text-decoration-line:none;text-decoration-style:solid;text-decoration-color:#000;text-transform:none;block-progression:tb;isolation:auto;mix-blend-mode:normal"/><path fill="#00a5ff" d="m -470.01041,1215.9061 c -0.0949,0.095 -0.17955,0.1963 -0.26717,0.2957 2.42902,-2.1408 6.12483,-2.0906 8.41862,0.2033 2.29388,2.2939 2.34413,5.9898 0.20326,8.4189 0.0995,-0.088 0.20085,-0.1722 0.29581,-0.2671 2.41559,-2.4156 2.45159,-6.327 0.0639,-8.7148 -2.3877,-2.3877 -6.29894,-2.3516 -8.71435,0.064 z" color="#000" font-family="sans-serif" font-weight="400" overflow="visible" white-space="normal" style="line-height:normal;text-indent:0;text-align:start;text-decoration-line:none;text-decoration-style:solid;text-decoration-color:#000;text-transform:none;block-progression:tb;isolation:auto;mix-blend-mode:normal"/><ellipse cx="-1192.115" cy="533.526" fill="none" stroke="#000" stroke-linecap="round" stroke-linejoin="round" color="#000" style="isolation:auto;mix-blend-mode:normal" overflow="visible" rx="6.369" ry="6.268" transform="rotate(-45.001) skewX(-.002)"/></g></svg>