<svg xmlns="http://www.w3.org/2000/svg" data-name="Layer 1" viewBox="0 0 64 64"><path fill="#003166" d="M8.12,27.14a4.9,4.9,0,0,1-.64-9.75h0a4.94,4.94,0,0,1,3.63,1.07A4.78,4.78,0,0,1,13,21.74a.69.69,0,0,0,.69.62h.07a.68.68,0,0,0,.61-.75A6.2,6.2,0,0,0,12,17.38,6.46,6.46,0,0,0,8.23,16h0a3.08,3.08,0,0,1,2.93-2.14A3.16,3.16,0,0,1,12,14a.68.68,0,0,0,.84-.45A8.36,8.36,0,0,1,27.56,11.2h0a9.23,9.23,0,0,0-4.81,8.1.68.68,0,0,0,.68.68.69.69,0,0,0,.69-.68,7.86,7.86,0,0,1,5.14-7.37h0a9.92,9.92,0,0,1,1.1-.31h0l.43-.07.34,0,.37,0H32a7.87,7.87,0,0,1,7.52,5.6,13,13,0,0,0-4.14-.68,12.69,12.69,0,0,0-11.86,8.14,6.14,6.14,0,0,0-1-.08,5.66,5.66,0,0,0-4.83,2.71ZM40.43,43.89l.7-1.55a.7.7,0,0,0-.06-.66.68.68,0,0,0-.57-.31H33.2a.7.7,0,0,0-.68.56l-.36,2h-5l.7-1.55a.7.7,0,0,0-.06-.66.68.68,0,0,0-.57-.31H21a.7.7,0,0,0-.68.56l-.36,2H18.48a6.72,6.72,0,0,1-.86-13.39,6.87,6.87,0,0,1,5,1.46,6.66,6.66,0,0,1,2.53,4.52.69.69,0,0,0,.68.62h.08a.69.69,0,0,0,.61-.75,8,8,0,0,0-3.05-5.45,8.2,8.2,0,0,0-5.13-1.8,5.58,5.58,0,0,1,.18-.58,4.47,4.47,0,0,1,.88-1.37,4.3,4.3,0,0,1,3.12-1.34,4.12,4.12,0,0,1,1.21.18.68.68,0,0,0,.85-.45,11.3,11.3,0,0,1,10.76-7.78,11.43,11.43,0,0,1,4.44.89h0a10.82,10.82,0,0,1,1.4.71,11.41,11.41,0,0,1,3.45,3.23,12,12,0,0,0-6.51,10.67.69.69,0,0,0,1.38,0,10.65,10.65,0,0,1,6.5-9.8l.28-.12a10.64,10.64,0,1,1,6.77,20.16l.51-1.15a.68.68,0,0,0-.05-.66.7.7,0,0,0-.58-.31H46.74a.69.69,0,0,0-.67.56l-.37,2ZM26,42.86l-2,4.54a.28.28,0,0,0,.25.39h1.57a.27.27,0,0,1,.21.45l-4.83,5.6a.28.28,0,0,1-.47-.26l2.1-6.9a.28.28,0,0,0-.26-.35H21a.27.27,0,0,1-.27-.33l.62-3.31a.27.27,0,0,1,.27-.22h4.11A.28.28,0,0,1,26,42.86Zm26,0-2,4.54a.28.28,0,0,0,.25.39h1.58a.27.27,0,0,1,.2.45l-4.82,5.6a.27.27,0,0,1-.47-.26l2.09-6.9a.27.27,0,0,0-.26-.35H47a.28.28,0,0,1-.27-.33l.62-3.31a.27.27,0,0,1,.27-.22h4.11A.28.28,0,0,1,52,42.86Zm-12.82.07L36.7,48.38a.32.32,0,0,0,.3.46h1.89a.33.33,0,0,1,.25.55L33.35,56.1a.33.33,0,0,1-.57-.31l2.52-8.27A.33.33,0,0,0,35,47.1H33.17a.33.33,0,0,1-.32-.39l.74-4a.33.33,0,0,1,.33-.27h4.92A.33.33,0,0,1,39.14,42.93Z"/></svg>